<svg width="482" height="451" viewBox="0 0 482 451" fill="none" xmlns="http://www.w3.org/2000/svg">
<path d="M75.7663 125.509V153H68.6972V125.509H75.7663ZM97.0914 142.868V138.273H114.529V153H109.305L108.991 148.68C106.399 151.508 102.275 153.393 96.4238 153.393C86.2914 153.393 80.0863 148.366 80.0863 139.255C80.0863 130.143 86.2914 125.116 97.602 125.116C108.598 125.116 114.097 129.397 114.529 136.231H107.342C106.949 134.149 105.064 131.047 97.602 131.047C88.4122 131.047 87.1554 136.113 87.1554 139.412C87.1554 142.75 88.4514 147.934 97.602 147.934C104.435 147.934 107.185 144.949 107.342 142.868H97.0914ZM151.386 135.602C151.386 140.079 149.108 143.378 145.417 144.831L150.483 153H142.157L137.719 145.656H126.33V153H119.261V125.509H140.861C147.105 125.509 151.386 129.476 151.386 135.602ZM126.33 131.439V139.726H138.897C141.018 139.726 144.317 139.726 144.317 135.602C144.317 131.439 141.018 131.439 138.897 131.439H126.33ZM184.727 131.125H162.734V136.702H184.727V141.807H162.734V147.384H184.727V153H155.665V125.509H184.727V131.125ZM221.76 125.509V139.215C221.76 148.759 216.536 153.393 205.265 153.393C193.955 153.393 188.771 148.798 188.771 139.215H195.84C195.84 143.064 196.9 147.463 205.265 147.463C213.63 147.463 214.691 143.025 214.691 139.215V131.439H201.652V125.509H221.76ZM252.871 153L249.926 147.148H233.471L230.525 153H222.749L236.927 125.509H246.47L260.687 153H252.871ZM236.102 141.886H247.295L241.718 130.732L236.102 141.886Z" fill="white"/>
<path d="M47.6114 446.366H50.6993C50.6993 447.635 51.7286 448.218 55.64 448.218C58.8823 448.218 59.8602 447.858 59.8602 446.915C59.8602 445.92 59.1739 445.748 55.2797 445.559C50.0474 445.319 47.9716 444.496 47.9716 441.802C47.9716 439.16 50.665 438.32 55.1596 438.32C59.6886 438.32 62.4334 439.452 62.4334 442.42H59.3455C59.3455 441.099 58.0246 440.773 54.8165 440.773C51.7801 440.773 51.0596 441.065 51.0596 441.957C51.0596 442.883 51.7801 443.055 55.2797 443.261C60.0146 443.518 62.9481 443.775 62.9481 446.812C62.9481 450.02 59.9116 450.672 55.4684 450.672C50.5449 450.672 47.6114 449.831 47.6114 446.366ZM77.6195 440.945H68.0126V443.381H77.6195V445.611H68.0126V448.047H77.6195V450.5H64.9247V438.491H77.6195V440.945ZM93.6367 442.9C93.6367 444.856 92.6417 446.297 91.0291 446.932L93.2421 450.5H89.6052L87.6667 447.292H82.6917V450.5H79.6037V438.491H89.0391C91.7668 438.491 93.6367 440.224 93.6367 442.9ZM82.6917 441.082V444.702H88.1813C89.1077 444.702 90.5488 444.702 90.5488 442.9C90.5488 441.082 89.1077 441.082 88.1813 441.082H82.6917ZM107.577 438.491V450.5H104.489V438.491H107.577ZM116.892 446.074V444.067H124.509V450.5H122.227L122.09 448.613C120.958 449.848 119.156 450.672 116.6 450.672C112.174 450.672 109.464 448.476 109.464 444.496C109.464 440.516 112.174 438.32 117.115 438.32C121.918 438.32 124.32 440.19 124.509 443.175H121.369C121.198 442.266 120.374 440.91 117.115 440.91C113.101 440.91 112.552 443.123 112.552 444.564C112.552 446.022 113.118 448.287 117.115 448.287C120.1 448.287 121.301 446.983 121.369 446.074H116.892ZM140.609 442.9C140.609 444.856 139.614 446.297 138.001 446.932L140.214 450.5H136.578L134.639 447.292H129.664V450.5H126.576V438.491H136.011C138.739 438.491 140.609 440.224 140.609 442.9ZM129.664 441.082V444.702H135.154C136.08 444.702 137.521 444.702 137.521 442.9C137.521 441.082 136.08 441.082 135.154 441.082H129.664ZM155.173 440.945H145.566V443.381H155.173V445.611H145.566V448.047H155.173V450.5H142.478V438.491H155.173V440.945ZM171.35 438.491V444.479C171.35 448.647 169.068 450.672 164.145 450.672C159.204 450.672 156.939 448.664 156.939 444.479H160.027C160.027 446.16 160.491 448.081 164.145 448.081C167.799 448.081 168.262 446.143 168.262 444.479V441.082H162.566V438.491H171.35ZM184.94 450.5L183.653 447.944H176.465L175.179 450.5H171.782L177.975 438.491H182.144L188.354 450.5H184.94ZM177.615 445.645H182.504L180.068 440.773L177.615 445.645ZM208.893 433.688V435.712L202.22 437.085V435.06L208.893 433.688ZM211.912 440.945H202.305V443.381H211.912V445.611H202.305V448.047H211.912V450.5H199.218V438.491H211.912V440.945ZM222.608 446.366H225.695C225.695 447.635 226.725 448.218 230.636 448.218C233.878 448.218 234.856 447.858 234.856 446.915C234.856 445.92 234.17 445.748 230.276 445.559C225.044 445.319 222.968 444.496 222.968 441.802C222.968 439.16 225.661 438.32 230.156 438.32C234.685 438.32 237.43 439.452 237.43 442.42H234.342C234.342 441.099 233.021 440.773 229.813 440.773C226.776 440.773 226.056 441.065 226.056 441.957C226.056 442.883 226.776 443.055 230.276 443.261C235.011 443.518 237.944 443.775 237.944 446.812C237.944 450.02 234.908 450.672 230.465 450.672C225.541 450.672 222.608 449.831 222.608 446.366ZM252.616 440.945H243.009V443.381H252.616V445.611H243.009V448.047H252.616V450.5H239.921V438.491H252.616V440.945ZM268.633 442.9C268.633 444.856 267.638 446.297 266.025 446.932L268.238 450.5H264.601L262.663 447.292H257.688V450.5H254.6V438.491H264.035C266.763 438.491 268.633 440.224 268.633 442.9ZM257.688 441.082V444.702H263.178C264.104 444.702 265.545 444.702 265.545 442.9C265.545 441.082 264.104 441.082 263.178 441.082H257.688ZM279.313 444.479C279.313 440.499 281.578 438.32 286.862 438.32C291.648 438.32 294.05 440.138 294.358 443.604H291.219C290.927 441.665 289.435 440.91 286.862 440.91C283.722 440.91 282.401 442.025 282.401 444.479C282.401 446.949 283.739 448.081 286.862 448.081C289.418 448.081 290.927 447.309 291.219 445.353H294.358C294.05 448.836 291.648 450.672 286.862 450.672C281.578 450.672 279.313 448.476 279.313 444.479ZM303.719 450.672C298.435 450.672 296.17 448.476 296.17 444.479C296.17 440.499 298.435 438.32 303.719 438.32C308.985 438.32 311.267 440.516 311.267 444.479C311.267 448.459 308.985 450.672 303.719 450.672ZM303.719 448.081C306.927 448.081 308.179 446.932 308.179 444.479C308.179 442.042 306.944 440.91 303.719 440.91C300.493 440.91 299.258 442.025 299.258 444.479C299.258 446.949 300.511 448.081 303.719 448.081ZM331.639 438.491V450.5H328.552V442.266L323.559 450.5H321.329L316.337 442.266V450.5H313.249V438.491H317.418L322.444 446.966L327.471 438.491H331.639ZM341.085 450.672C335.801 450.672 333.536 448.476 333.536 444.479C333.536 440.499 335.801 438.32 341.085 438.32C346.351 438.32 348.633 440.516 348.633 444.479C348.633 448.459 346.351 450.672 341.085 450.672ZM341.085 448.081C344.293 448.081 345.545 446.932 345.545 444.479C345.545 442.042 344.31 440.91 341.085 440.91C337.86 440.91 336.624 442.025 336.624 444.479C336.624 446.949 337.877 448.081 341.085 448.081ZM359.326 444.479C359.326 440.499 361.591 438.32 366.874 438.32C371.661 438.32 374.062 440.138 374.371 443.604H371.232C370.94 441.665 369.448 440.91 366.874 440.91C363.735 440.91 362.414 442.025 362.414 444.479C362.414 446.949 363.752 448.081 366.874 448.081C369.431 448.081 370.94 447.309 371.232 445.353H374.371C374.062 448.836 371.661 450.672 366.874 450.672C361.591 450.672 359.326 448.476 359.326 444.479ZM390.388 442.9C390.388 444.856 389.393 446.297 387.78 446.932L389.993 450.5H386.356L384.418 447.292H379.443V450.5H376.355V438.491H385.79C388.518 438.491 390.388 440.224 390.388 442.9ZM379.443 441.082V444.702H384.932C385.859 444.702 387.3 444.702 387.3 442.9C387.3 441.082 385.859 441.082 384.932 441.082H379.443ZM395.345 438.491V450.5H392.257V438.491H395.345ZM397.215 446.366H400.303C400.303 447.635 401.332 448.218 405.244 448.218C408.486 448.218 409.464 447.858 409.464 446.915C409.464 445.92 408.778 445.748 404.883 445.559C399.651 445.319 397.575 444.496 397.575 441.802C397.575 439.16 400.269 438.32 404.763 438.32C409.292 438.32 412.037 439.452 412.037 442.42H408.949C408.949 441.099 407.628 440.773 404.42 440.773C401.384 440.773 400.663 441.065 400.663 441.957C400.663 442.883 401.384 443.055 404.883 443.261C409.618 443.518 412.552 443.775 412.552 446.812C412.552 450.02 409.515 450.672 405.072 450.672C400.149 450.672 397.215 449.831 397.215 446.366ZM428.155 438.491V441.082H422.323V450.5H419.235V441.082H413.402V438.491H428.155ZM436.835 450.672C431.552 450.672 429.287 448.476 429.287 444.479C429.287 440.499 431.552 438.32 436.835 438.32C442.102 438.32 444.384 440.516 444.384 444.479C444.384 448.459 442.102 450.672 436.835 450.672ZM436.835 448.081C440.043 448.081 441.296 446.932 441.296 444.479C441.296 442.042 440.061 440.91 436.835 440.91C433.61 440.91 432.375 442.025 432.375 444.479C432.375 446.949 433.627 448.081 436.835 448.081Z" fill="white"/>
<path fill-rule="evenodd" clip-rule="evenodd" d="M41.2632 1.6998C36.2732 3.9738 32.1872 8.6908 30.8242 13.7528C30.1462 16.2678 29.8792 42.5058 30.0472 89.9568C30.2732 153.6 30.4852 162.304 31.8042 162.143C32.6292 162.042 38.4792 160.648 44.8042 159.044L56.3042 156.128L56.8042 95.2268C57.3442 29.5058 57.1902 31.2288 62.7842 28.3358C67.0902 26.1088 417.374 26.0348 421.676 28.2598C427.576 31.3108 427.262 27.8968 427.804 94.7288L428.304 156.326L434.334 156.991C437.651 157.357 443.149 158.595 446.553 159.741C449.956 160.888 453.214 161.826 453.791 161.826C454.518 161.826 454.759 138.95 454.573 87.5758C454.27 3.9418 454.733 8.8208 446.566 3.1608L442.475 0.325797L243.89 0.092797C52.8752 -0.132203 45.1502 -0.0702026 41.2632 1.6998ZM62.3042 167.444C30.5002 170.686 14.0932 177.818 7.36517 191.326C4.68717 196.702 4.38017 198.279 4.41317 206.496C4.44717 214.766 4.76717 216.308 7.67717 222.22C15.8112 238.742 34.0402 245.034 81.8042 247.803C120.813 250.064 131.014 251.734 134.738 256.47C139.607 262.659 135.931 271.232 127.12 274.234C115.493 278.196 74.4862 278.851 56.3042 275.366C42.6062 272.74 37.3692 268.729 34.3822 258.576C33.9182 257 32.2152 256.826 17.3042 256.826C3.61517 256.826 0.643167 257.082 0.174167 258.304C-0.813833 260.878 2.60017 274.8 5.41017 279.656C9.30817 286.392 14.7172 291.183 23.0222 295.256C37.7572 302.483 55.1172 305.128 87.8042 305.128C130.101 305.128 150.921 300.137 162.788 287.153C169.284 280.045 171.302 274.044 171.303 261.826C171.304 253.433 170.976 251.658 168.49 246.596C160.679 230.689 145.019 225.892 89.3042 222.337C59.0702 220.407 50.4452 219.281 44.8042 216.525C41.0672 214.699 40.1432 213.673 39.3522 210.471C37.9222 204.679 40.7762 199.984 47.3042 197.391C51.8562 195.583 54.7682 195.402 79.8042 195.366C103.116 195.332 108.502 195.607 115.172 197.17C124.379 199.329 129.52 203.2 130.673 208.842L131.384 212.326L148.735 212.6L166.086 212.874L165.552 206.987C163.813 187.803 147.272 174.483 118.804 169.341C109.628 167.684 72.2612 166.43 62.3042 167.444ZM184.478 169.485C183.623 170.341 183.819 296.288 184.682 300.326L185.323 303.326L245.702 303.584C289.466 303.771 306.455 303.531 307.442 302.711C308.45 301.875 308.8 298.56 308.789 289.954C308.78 283.558 308.419 277.768 307.986 277.087C307.384 276.138 296.884 275.786 263.252 275.587L219.304 275.326L219.025 262.076L218.746 248.826H263.168C302.753 248.826 307.656 248.654 308.197 247.244C309.085 244.931 308.91 226.541 307.986 225.087C307.384 224.138 296.884 223.786 263.252 223.587L219.304 223.326L219.025 210.076L218.746 196.826H262.653C298.926 196.826 306.76 196.584 307.713 195.435C308.484 194.506 308.774 189.944 308.586 181.685L308.304 169.326L246.728 169.068C212.862 168.927 184.849 169.114 184.478 169.485ZM325.047 236.076L325.304 303.326H341.804H358.304L358.804 285.826L359.304 268.326H387.226H415.148L425.747 285.826L436.345 303.326L455.598 303.598C471.472 303.822 474.946 303.621 475.394 302.452C475.694 301.669 470.924 292.954 464.75 283.005C458.597 273.089 453.553 264.608 453.54 264.158C453.528 263.708 455.72 262.062 458.411 260.499C480.298 247.792 487.99 219.119 476.199 194.195C472.855 187.126 464.904 179.122 457.304 175.172C445.291 168.928 444.068 168.826 381.483 168.826H324.79L325.047 236.076ZM421.598 204.125C426.56 206.834 428.797 211.246 428.797 218.326C428.797 222.584 428.211 225.287 426.778 227.636C423.159 233.573 421.144 233.887 388.55 233.591L359.304 233.326L359.025 218.872C358.872 210.922 358.982 203.804 359.27 203.054C359.699 201.935 365.047 201.748 389.049 202.008C414.945 202.29 418.682 202.532 421.598 204.125ZM30.3882 308.575C30.0672 308.897 29.8242 331.922 29.8482 359.743C29.8942 412.949 30.0612 415.136 34.4592 419.999C35.4742 421.121 37.9742 422.891 40.0142 423.932C43.6182 425.772 49.4172 425.826 242.296 425.826C407.745 425.826 441.413 425.598 444.133 424.462C448.267 422.735 452.439 417.813 453.823 413.031C454.537 410.562 454.796 393.651 454.599 362.326L454.304 315.326L443.042 315.043C433.101 314.793 431.636 314.53 430.551 312.793C429.876 311.711 428.981 310.826 428.563 310.826C428.146 310.826 427.804 328.869 427.804 350.922C427.804 386.919 427.63 391.313 426.098 393.906C422.355 400.241 435.257 399.826 242.051 399.826H66.1002L62.7162 397.546C56.8022 393.56 56.8352 393.81 56.8192 352.643C56.8052 317.619 56.6812 314.926 55.0542 314.462C54.0922 314.188 50.6602 313.439 47.4292 312.798C44.1982 312.157 39.1732 310.813 36.2632 309.812C33.3532 308.811 30.7092 308.254 30.3882 308.575Z" fill="white"/>
</svg>
